<?xml version="1.0" standalone="no"?>
<!DOCTYPE svg PUBLIC "-//W3C//DTD SVG 20010904//EN"
 "http://www.w3.org/TR/2001/REC-SVG-20010904/DTD/svg10.dtd">
<svg version="1.0" xmlns="http://www.w3.org/2000/svg"
 width="1014.000000pt" height="1014.000000pt" viewBox="0 0 1014.000000 1014.000000"
 preserveAspectRatio="xMidYMid meet">
<metadata>
Created by potrace 1.11, written by Peter Selinger 2001-2013
</metadata>
<g transform="translate(0.000000,1014.000000) scale(0.100000,-0.100000)"
fill="#000000" stroke="none">
<path d="M5298 7862 c-103 -70 -340 -242 -348 -252 -3 -4 -12 -11 -21 -16 -9
-5 -32 -21 -50 -36 -19 -14 -54 -42 -79 -60 -314 -235 -380 -294 -416 -372
-21 -45 -47 -134 -59 -198 -7 -33 -22 -107 -30 -140 -3 -13 -8 -34 -10 -48 -2
-14 -16 -81 -30 -150 -15 -69 -28 -142 -31 -163 -2 -20 -8 -56 -13 -80 -18
-79 -26 -192 -26 -357 1 -242 23 -289 165 -360 103 -52 147 -60 315 -56 130 2
157 6 202 25 80 35 87 48 144 251 37 133 49 180 63 250 2 14 18 84 35 155 27
115 80 360 85 392 2 13 95 81 285 210 140 95 133 94 232 37 35 -20 89 -50 119
-66 85 -47 129 -72 207 -117 39 -22 87 -49 105 -60 70 -39 618 -356 708 -408
52 -31 111 -65 130 -76 19 -10 193 -112 385 -225 193 -113 370 -216 395 -230
154 -86 430 -261 457 -290 130 -138 152 -311 66 -516 -51 -123 -153 -260 -243
-328 -19 -14 -57 -33 -85 -41 l-49 -14 1 -132 c1 -73 4 -143 7 -156 l6 -23 92
25 c132 35 241 64 258 69 15 4 332 88 445 118 33 9 74 21 91 27 17 5 40 11 52
14 40 7 185 49 427 121 92 27 94 30 109 109 22 123 36 441 36 835 -1 341 -7
487 -26 583 -2 12 -6 38 -9 59 -17 111 -107 412 -180 598 -90 229 -259 588
-295 624 -18 19 -21 18 -147 -13 -70 -18 -135 -34 -143 -36 -8 -2 -42 -11 -75
-20 -87 -23 -869 -224 -895 -230 -8 -2 -53 -13 -100 -25 -47 -12 -92 -23 -100
-25 -40 -8 -132 -34 -137 -39 -3 -2 -165 92 -361 211 -197 118 -370 223 -387
233 -16 9 -109 64 -205 121 -96 58 -271 160 -388 228 l-213 124 -189 1 -189 1
-93 -63z"/>
<path d="M4430 7783 c-8 -3 -41 -23 -72 -45 -31 -21 -60 -38 -63 -38 -3 0 -11
-5 -18 -11 -21 -18 -177 -118 -177 -113 0 3 -10 -4 -22 -16 -12 -11 -27 -20
-34 -20 -6 0 -14 -7 -18 -15 -3 -8 -11 -14 -18 -13 -7 2 -12 -2 -11 -9 2 -7
-4 -10 -12 -7 -8 4 -15 2 -15 -4 0 -5 -8 -12 -17 -16 -19 -6 -55 -27 -63 -37
-10 -12 -311 -199 -321 -199 -5 0 -9 -4 -9 -9 0 -5 -9 -13 -20 -16 -11 -4 -17
-11 -14 -17 4 -6 2 -8 -3 -5 -6 4 -27 -4 -47 -18 -20 -14 -39 -25 -41 -25 -3
0 -29 -16 -59 -35 -30 -19 -60 -35 -66 -35 -5 0 -10 -4 -10 -8 0 -4 -15 -15
-32 -24 -101 -48 -173 -89 -173 -97 0 -5 -4 -13 -9 -18 -5 -5 -6 -3 -2 5 11
18 -15 15 -52 -8 -30 -19 -75 -22 -98 -7 -6 3 -29 8 -52 9 -22 2 -39 6 -37 9
2 3 -24 11 -58 18 -34 8 -82 20 -107 27 -25 8 -54 15 -65 17 -11 1 -26 6 -33
11 -7 4 -16 5 -19 2 -3 -3 -11 -2 -18 4 -6 5 -27 11 -47 14 -20 2 -45 9 -56
15 -11 6 -22 7 -26 4 -3 -3 -6 -1 -6 5 0 7 -3 11 -7 10 -13 -3 -79 12 -144 32
-34 11 -65 18 -69 15 -5 -3 -10 -1 -12 4 -1 6 -14 12 -28 14 -14 2 -33 7 -42
11 -9 4 -22 5 -28 1 -5 -3 -10 -1 -10 4 0 6 -3 10 -7 9 -5 -1 -20 2 -34 6 -14
4 -32 8 -40 9 -8 2 -20 7 -28 11 -8 5 -24 10 -35 11 -12 1 -28 5 -36 8 -18 7
-125 38 -149 42 -9 2 -16 4 -16 5 0 1 -7 3 -15 5 -8 2 -46 13 -84 24 -38 11
-73 18 -79 14 -6 -3 -7 -1 -4 4 6 10 -22 19 -79 27 -11 1 -25 6 -32 10 -7 4
-12 4 -12 -1 0 -4 -4 -3 -8 3 -4 5 -50 23 -102 38 -141 40 -137 40 -146 8 -4
-15 -7 -30 -6 -34 1 -5 -2 -8 -7 -8 -10 0 -27 -39 -23 -52 1 -5 -2 -8 -7 -8
-5 0 -13 -10 -16 -22 -6 -21 -26 -69 -47 -111 -5 -10 -6 -22 -3 -27 4 -6 1
-10 -6 -10 -7 0 -9 -8 -6 -21 3 -12 3 -18 -1 -15 -7 7 -47 -87 -57 -136 -4
-18 -12 -39 -17 -45 -6 -7 -8 -13 -5 -13 3 0 -1 -16 -9 -35 -8 -19 -14 -37
-14 -40 0 -8 -2 -15 -23 -85 -9 -30 -19 -66 -21 -80 -3 -14 -5 -26 -7 -27 -1
-2 -2 -6 -3 -10 -2 -5 -8 -27 -15 -51 -6 -23 -9 -46 -6 -51 3 -5 1 -11 -5 -13
-5 -1 -11 -16 -14 -33 -2 -16 -6 -37 -9 -45 -3 -8 -9 -31 -12 -50 -3 -19 -9
-52 -14 -72 -5 -21 -7 -38 -4 -38 3 0 1 -6 -4 -12 -6 -7 -10 -20 -11 -28 0 -8
-2 -28 -6 -45 -3 -16 -8 -48 -12 -70 -3 -22 -8 -42 -10 -44 -2 -2 2 -11 9 -19
9 -13 9 -14 0 -8 -8 4 -13 1 -14 -8 -1 -9 -2 -22 -3 -28 -1 -7 3 -19 8 -27 8
-11 8 -13 -1 -7 -13 7 -14 4 -17 -79 -1 -22 -5 -46 -10 -53 -4 -7 -2 -12 6
-12 10 0 10 -2 1 -8 -7 -4 -12 -16 -12 -27 0 -11 -2 -65 -6 -120 -11 -202 -12
-290 -3 -302 5 -7 5 -14 -1 -18 -14 -8 -13 -603 1 -611 5 -3 5 -11 -2 -19 -8
-9 -8 -15 0 -20 6 -3 8 -11 5 -16 -4 -5 -2 -9 4 -9 5 0 22 -5 38 -12 30 -12
37 -14 68 -22 49 -12 214 -64 225 -71 8 -5 11 -4 7 2 -3 5 0 10 8 10 8 0 12
-4 9 -9 -5 -7 13 -12 44 -11 6 1 12 -3 12 -7 0 -4 17 -11 38 -16 20 -4 39 -8
42 -9 49 -14 86 -25 92 -25 4 0 26 -7 48 -15 22 -8 44 -15 48 -16 26 -6 114
-30 132 -37 8 -3 24 -7 35 -9 29 -7 38 -9 56 -17 8 -4 29 -8 45 -9 16 -1 31
-4 34 -7 3 -3 50 -19 105 -34 55 -15 112 -33 127 -38 15 -5 32 -7 37 -3 6 3
11 2 11 -3 0 -5 6 -9 13 -9 11 -1 214 -59 247 -71 19 -7 18 -7 59 -16 29 -7
37 -5 52 15 12 16 14 27 8 36 -8 8 -5 10 10 6 15 -4 21 -1 21 11 0 9 5 16 12
16 6 0 9 3 5 6 -8 8 133 144 150 144 7 0 13 5 13 12 0 6 3 8 7 5 3 -4 12 -2
20 5 17 14 183 11 208 -3 6 -4 23 -9 40 -13 16 -4 49 -16 72 -27 24 -11 48
-17 54 -14 5 4 8 1 7 -7 -2 -7 3 -12 10 -11 6 2 12 -1 12 -6 0 -5 8 -11 18
-15 17 -6 53 -27 62 -36 12 -14 70 -51 70 -45 0 3 12 -6 26 -20 14 -14 30 -22
36 -19 6 4 8 3 5 -3 -3 -5 6 -16 21 -25 25 -14 28 -13 45 4 9 10 15 18 12 18
-5 0 142 147 181 180 35 30 118 74 108 58 -5 -7 -3 -8 6 -3 16 10 109 14 115
6 2 -4 24 -6 49 -6 25 0 46 -3 46 -6 0 -4 17 -10 38 -15 41 -8 41 -8 62 -17 8
-3 24 -7 35 -9 11 -2 22 -5 25 -8 3 -3 28 -17 56 -32 44 -23 112 -79 114 -93
2 -19 55 -113 62 -109 4 3 8 -2 8 -10 0 -17 15 -22 24 -7 3 5 18 12 33 15 38
10 83 30 83 37 0 4 11 10 25 13 14 4 25 11 25 17 0 6 4 8 10 4 5 -3 25 1 45 9
19 8 38 15 40 16 3 0 8 1 13 2 20 4 188 2 192 -2 13 -13 141 -49 157 -44 14 5
15 4 4 -4 -12 -8 -7 -14 25 -29 21 -10 43 -24 47 -30 4 -7 12 -13 18 -13 5 0
23 -13 40 -30 18 -16 36 -27 42 -23 5 3 7 1 4 -4 -8 -13 27 -46 37 -36 4 4 4
0 0 -10 -3 -9 -1 -17 4 -17 6 0 13 -8 16 -18 4 -10 16 -29 27 -41 12 -12 22
-28 24 -34 7 -35 28 -77 38 -77 6 0 8 -3 4 -6 -9 -10 20 -61 40 -70 10 -4 32
-9 48 -10 17 -1 30 -3 30 -4 0 -2 10 -4 22 -5 35 -4 117 -27 127 -36 6 -5 18
-9 27 -9 10 0 19 -5 21 -11 2 -5 10 -11 19 -12 8 -2 29 -13 47 -25 18 -13 32
-21 32 -17 0 3 11 -4 24 -17 43 -43 79 -67 89 -61 6 3 7 1 3 -5 -3 -6 4 -21
16 -34 51 -54 78 -89 78 -103 0 -8 6 -15 14 -15 8 0 18 -5 22 -12 4 -7 3 -8
-4 -4 -14 8 -16 -6 -3 -19 5 -6 14 -27 20 -47 11 -32 16 -53 26 -108 1 -8 0
-19 -3 -24 -2 -5 -6 -27 -8 -50 -3 -51 -59 -176 -87 -197 -5 -3 -8 -9 -8 -13
0 -3 -2 -12 -5 -20 -10 -27 1 -69 21 -80 11 -6 23 -15 26 -20 4 -5 12 -5 19
-1 9 6 11 4 5 -5 -6 -10 -4 -12 11 -6 10 4 15 4 11 0 -14 -14 51 -33 102 -30
77 5 149 50 216 138 41 54 65 88 65 93 0 3 11 22 23 43 13 20 28 51 32 67 5
17 9 33 10 38 2 4 3 8 5 10 4 5 11 44 11 73 1 38 -33 110 -50 106 -7 -1 -10 2
-6 8 6 10 -60 80 -75 80 -5 0 -15 6 -23 14 -14 14 -86 57 -157 93 -19 10 -39
24 -43 31 -5 7 -12 10 -18 7 -5 -4 -9 1 -9 9 0 9 -4 16 -9 16 -17 0 -22 34 -6
42 8 5 14 12 11 16 -2 4 13 7 34 7 21 0 36 -3 33 -7 -2 -5 4 -8 14 -8 10 0 52
-18 95 -39 42 -22 79 -37 82 -34 3 4 6 1 6 -6 0 -7 5 -9 10 -6 6 3 10 2 10 -3
0 -8 71 -52 84 -52 4 0 4 5 0 12 -4 7 -3 8 5 4 6 -4 9 -11 7 -15 -7 -10 69
-53 78 -44 3 3 6 2 6 -4 0 -12 69 -56 131 -84 20 -9 40 -22 43 -28 4 -6 12 -9
17 -6 5 4 9 2 9 -3 0 -17 172 -89 205 -86 58 7 120 41 153 86 7 9 19 24 27 32
8 8 15 17 15 21 0 4 6 13 13 20 28 33 37 45 32 45 -3 0 2 11 11 25 8 13 13 29
9 35 -4 6 -3 9 2 8 4 -2 10 2 11 7 2 6 8 15 14 22 5 7 6 18 2 24 -5 8 -3 9 6
4 10 -6 12 -3 8 13 -4 12 -3 20 2 17 12 -8 32 79 33 143 0 27 -8 41 -44 73
-24 22 -56 45 -71 52 -16 6 -28 16 -28 20 0 5 -4 6 -9 3 -5 -4 -11 -2 -13 3
-5 14 -110 82 -129 84 -10 1 -16 4 -14 8 3 3 -8 12 -23 20 -15 8 -50 28 -79
46 -29 18 -57 33 -63 33 -5 0 -10 5 -10 11 0 5 -4 7 -10 4 -5 -3 -10 -1 -10 4
0 6 -6 11 -14 11 -8 0 -16 4 -18 9 -1 5 -10 11 -18 13 -8 2 -23 11 -34 20 -10
10 -23 15 -28 12 -4 -3 -8 0 -8 5 0 6 -18 19 -40 28 -22 10 -40 21 -40 25 0 5
-5 8 -11 8 -6 0 -17 7 -26 16 -9 8 -22 13 -29 10 -8 -3 -13 -2 -12 2 1 4 -12
22 -30 41 -23 24 -29 37 -22 46 5 6 7 14 5 17 -6 6 39 26 73 33 12 2 27 7 34
11 7 4 8 3 4 -4 -5 -8 3 -12 22 -12 16 0 35 -7 42 -15 7 -9 19 -14 26 -11 7 3
14 1 16 -3 6 -15 180 -111 190 -104 7 3 8 1 4 -5 -4 -7 2 -16 16 -21 13 -5 30
-16 37 -25 7 -9 22 -16 32 -16 11 0 19 -4 19 -9 0 -5 9 -13 20 -16 11 -3 27
-13 35 -21 8 -8 24 -16 34 -17 11 0 18 -4 15 -8 -2 -4 20 -19 49 -34 28 -15
59 -32 67 -39 18 -13 39 -25 111 -62 30 -15 61 -33 69 -39 8 -6 48 -24 88 -40
74 -29 143 -36 150 -16 2 6 10 11 17 11 17 0 76 61 69 72 -3 5 0 7 7 6 7 -2
17 6 23 18 6 11 19 28 29 38 9 10 15 22 12 27 -4 5 2 9 11 9 10 0 14 3 11 6
-4 4 2 19 12 33 32 47 62 113 64 141 1 16 6 26 10 23 5 -3 8 5 6 18 -1 13 1
31 4 39 7 17 4 46 -5 56 -4 3 -4 12 -2 19 13 33 -50 105 -151 175 -27 19 -51
38 -53 43 -2 4 -12 7 -23 7 -10 0 -19 5 -19 10 0 6 -7 10 -15 10 -8 0 -15 3
-15 8 0 4 -9 12 -19 17 -91 47 -116 61 -119 68 -2 4 -7 7 -12 7 -4 0 -35 15
-68 34 -33 19 -63 32 -66 28 -3 -3 -6 0 -6 6 0 7 -4 12 -9 12 -5 0 -37 16 -70
34 -34 19 -61 33 -61 30 0 -3 -10 5 -22 16 -13 12 -32 20 -44 17 -12 -2 -21 1
-20 7 0 6 -3 13 -9 15 -5 2 -22 12 -37 22 -14 10 -31 19 -36 19 -6 0 -12 4
-14 9 -1 5 -10 11 -18 13 -8 2 -22 11 -31 21 -9 9 -21 17 -28 17 -6 0 -11 14
-11 30 0 23 6 33 25 42 14 6 25 14 25 17 0 3 25 6 55 7 30 0 55 -3 55 -8 0 -4
3 -7 8 -6 4 1 24 -4 44 -11 21 -7 42 -10 48 -6 6 4 9 1 8 -6 -2 -6 11 -16 27
-22 17 -5 35 -14 41 -18 6 -5 37 -23 70 -40 32 -17 84 -47 114 -66 30 -20 73
-47 95 -61 22 -14 59 -38 82 -54 23 -15 46 -28 52 -28 6 0 11 -4 11 -10 0 -5
6 -10 13 -10 7 0 23 -9 35 -21 12 -11 27 -17 32 -14 6 3 10 2 10 -3 0 -8 76
-50 95 -53 2 0 27 -9 55 -19 27 -10 50 -15 50 -10 0 4 9 6 20 3 23 -6 121 27
114 39 -3 4 2 8 10 8 20 0 68 49 60 61 -3 5 -2 8 3 7 4 -2 10 2 12 7 2 6 11
15 20 22 9 7 12 13 7 13 -6 0 -1 7 10 15 10 8 15 15 9 15 -5 0 0 7 12 15 14
10 20 24 19 39 -2 18 1 23 12 18 10 -4 13 -1 8 7 -5 7 0 21 10 32 9 10 14 19
11 19 -3 0 0 17 7 38 7 20 12 47 11 60 -1 12 3 22 9 22 6 0 6 4 -1 11 -6 6 -9
17 -7 24 8 21 -119 148 -180 178 -30 16 -58 33 -62 38 -3 5 -10 7 -15 4 -5 -4
-9 -2 -9 3 0 10 -60 38 -72 34 -5 -1 -7 3 -5 10 1 7 -2 12 -8 13 -5 0 -20 6
-31 13 -12 6 -24 9 -28 7 -3 -3 -4 -2 -1 1 4 7 -134 93 -186 116 -16 7 -29 16
-29 19 0 6 -31 17 -47 17 -3 0 -10 7 -15 16 -5 9 -16 16 -23 16 -8 0 -15 4
-15 9 0 8 -28 19 -47 19 -3 0 -10 7 -15 16 -5 9 -13 14 -19 11 -5 -4 -9 -1 -9
4 0 6 -6 11 -14 11 -8 0 -16 3 -18 8 -6 15 -68 43 -80 36 -6 -4 -8 -3 -5 3 8
13 -70 56 -85 47 -6 -4 -8 -3 -5 3 7 10 -29 40 -54 45 -7 2 -21 11 -31 21 -10
10 -23 15 -28 12 -6 -4 -10 -2 -10 4 0 6 -17 18 -37 28 -21 9 -42 21 -48 25
-26 21 -85 57 -85 52 0 -3 -13 4 -29 15 -16 12 -34 21 -40 21 -6 0 -11 5 -11
11 0 6 -7 9 -15 5 -8 -3 -15 -1 -15 5 0 5 -13 15 -30 20 -16 6 -30 15 -30 21
0 5 -4 6 -10 3 -5 -3 -10 -2 -10 2 0 5 -21 20 -47 33 -27 14 -50 27 -53 30
-11 11 -46 31 -72 41 -16 6 -28 15 -28 20 0 5 -5 9 -11 9 -6 0 -37 16 -70 35
-32 19 -59 31 -59 28 0 -4 -7 2 -15 13 -8 10 -15 15 -15 11 0 -4 -20 6 -45 23
-25 17 -50 28 -55 25 -6 -3 -10 -1 -10 4 0 6 -18 19 -40 28 -22 10 -40 21 -40
25 0 5 -5 8 -10 8 -6 0 -28 11 -51 25 -22 14 -45 23 -52 19 -7 -4 -9 -3 -4 1
4 5 -5 15 -20 22 -16 7 -57 29 -91 48 -35 19 -69 32 -74 28 -6 -3 -8 -1 -4 5
4 6 -8 16 -29 23 -19 7 -35 16 -35 20 0 4 -17 13 -37 20 -21 6 -41 16 -44 21
-3 5 -12 10 -20 11 -8 2 -20 6 -27 10 -7 5 -14 2 -18 -7 -3 -9 -10 -14 -14
-11 -5 3 -14 -1 -22 -8 -7 -7 -37 -30 -66 -51 -58 -42 -117 -119 -108 -142 3
-8 2 -13 -3 -10 -14 9 -33 -66 -35 -136 0 -10 -4 -18 -9 -18 -4 0 -6 -3 -3 -8
2 -4 0 -30 -5 -57 -18 -93 -22 -120 -23 -142 0 -13 -3 -23 -7 -23 -3 0 -5 -10
-5 -22 1 -13 0 -27 -3 -33 -3 -5 -6 -17 -6 -25 -1 -8 -4 -24 -8 -35 -6 -18
-10 -40 -22 -100 -6 -29 -11 -48 -18 -65 -3 -8 -9 -33 -13 -55 -4 -22 -9 -47
-11 -55 -3 -8 -5 -22 -7 -30 -1 -9 -5 -20 -8 -25 -6 -12 -27 -75 -29 -90 -4
-30 -99 -145 -120 -145 -5 0 -9 -4 -9 -8 0 -5 -6 -9 -12 -10 -27 -2 -109 -28
-104 -32 2 -3 -39 -4 -92 -3 -53 0 -97 2 -97 3 0 2 -39 7 -107 14 -27 3 -56
10 -67 15 -10 6 -21 8 -24 5 -2 -3 -33 4 -68 15 -35 12 -73 22 -84 24 -11 2
-33 9 -50 16 -16 7 -38 13 -47 14 -10 1 -18 5 -18 10 0 4 -4 6 -9 3 -5 -4 -11
-2 -13 4 -2 6 -12 12 -23 14 -27 6 -83 35 -90 47 -4 5 -11 7 -16 4 -5 -4 -9
-1 -9 5 0 7 -7 10 -15 6 -8 -3 -14 0 -12 6 1 7 -8 17 -20 23 -13 5 -23 13 -23
17 0 4 -11 18 -24 31 -34 34 -76 120 -80 165 -3 20 -5 39 -6 42 -1 3 -1 13 0
24 1 10 -4 23 -12 27 -9 6 -9 9 -1 9 8 0 12 16 12 43 1 42 7 105 16 162 2 17
7 42 9 57 2 14 7 39 10 55 6 27 16 75 20 100 1 7 5 15 8 19 4 3 4 17 2 30 -2
13 -1 24 4 24 5 0 9 6 10 13 2 26 9 64 21 105 7 23 9 46 6 51 -3 5 0 11 6 13
7 2 12 22 13 45 0 23 4 39 9 36 6 -4 11 28 10 65 -1 6 3 12 8 12 5 0 8 3 8 8
-1 4 -1 9 1 12 1 3 4 16 7 30 6 33 11 54 13 60 1 3 2 8 1 13 0 4 3 7 8 7 5 0
8 8 6 18 -1 9 0 22 4 27 3 6 7 15 8 20 5 22 22 82 31 112 6 17 8 34 4 37 -3 3
-1 6 5 6 5 0 10 7 11 15 1 8 3 22 4 30 1 8 5 15 10 15 5 0 6 5 3 10 -4 6 -2
16 3 23 6 7 10 14 10 17 1 3 6 19 13 35 7 17 12 33 11 38 -1 4 2 7 7 7 5 0 23
14 39 30 17 17 35 30 41 30 6 0 11 8 11 17 0 9 3 13 6 10 7 -6 52 22 88 55 11
10 23 18 27 18 4 0 14 6 21 13 7 6 33 26 58 42 46 31 61 42 83 61 7 5 20 13
30 17 10 4 16 10 13 15 -2 4 4 8 14 9 10 1 27 10 38 20 10 10 27 23 38 30 19
12 19 13 -1 29 -18 14 -101 57 -115 59 -3 0 -10 3 -15 7 -17 11 -131 38 -156
37 -13 0 -31 -3 -39 -6z m17 -88 c0 -8 -4 -12 -9 -9 -5 3 -6 10 -3 15 9 13 12
11 12 -6z m7 -153 c3 -5 -1 -9 -9 -9 -8 0 -12 4 -9 9 3 4 7 8 9 8 2 0 6 -4 9
-8z m-480 -240 c3 -5 -1 -9 -9 -9 -8 0 -12 4 -9 9 3 4 7 8 9 8 2 0 6 -4 9 -8z
m240 0 c3 -5 -1 -9 -9 -9 -8 0 -12 4 -9 9 3 4 7 8 9 8 2 0 6 -4 9 -8z m-87
-77 c0 -8 -4 -12 -9 -9 -5 3 -6 10 -3 15 9 13 12 11 12 -6z m-2867 -1 c0 -8
-19 -13 -24 -6 -3 5 1 9 9 9 8 0 15 -2 15 -3z m2465 -3 c3 -5 2 -12 -3 -15 -5
-3 -9 1 -9 9 0 17 3 19 12 6z m-78 -36 c0 -8 -4 -12 -9 -9 -5 3 -6 10 -3 15 9
13 12 11 12 -6z m-1840 -40 c0 -8 -4 -12 -9 -9 -5 3 -6 10 -3 15 9 13 12 11
12 -6z m-243 -3 c3 -5 -1 -9 -9 -9 -8 0 -12 4 -9 9 3 4 7 8 9 8 2 0 6 -4 9 -8z
m2006 2 c0 -8 -19 -13 -24 -6 -3 5 1 9 9 9 8 0 15 -2 15 -3z m394 -2 c3 -5 -1
-9 -9 -9 -8 0 -12 4 -9 9 3 4 7 8 9 8 2 0 6 -4 9 -8z m-1839 -71 c3 -5 2 -12
-3 -15 -5 -3 -9 1 -9 9 0 17 3 19 12 6z m-80 -10 c3 -5 2 -12 -3 -15 -5 -3 -9
1 -9 9 0 17 3 19 12 6z m-715 -77 c0 -8 -19 -13 -24 -6 -3 5 1 9 9 9 8 0 15
-2 15 -3z m1114 -2 c3 -5 -1 -9 -9 -9 -8 0 -12 4 -9 9 3 4 7 8 9 8 2 0 6 -4 9
-8z m1050 0 c3 -5 -1 -9 -9 -9 -8 0 -12 4 -9 9 3 4 7 8 9 8 2 0 6 -4 9 -8z
m-2314 -78 c0 -8 -19 -13 -24 -6 -3 5 1 9 9 9 8 0 15 -2 15 -3z m320 0 c0 -8
-19 -13 -24 -6 -3 5 1 9 9 9 8 0 15 -2 15 -3z m1840 0 c0 -8 -19 -13 -24 -6
-3 5 1 9 9 9 8 0 15 -2 15 -3z m190 -4 c0 -5 -4 -10 -10 -10 -5 0 -10 5 -10
10 0 6 5 10 10 10 6 0 10 -4 10 -10z m200 4 c0 -8 -19 -13 -24 -6 -3 5 1 9 9
9 8 0 15 -2 15 -3z m157 -9 c0 -8 -4 -12 -9 -9 -5 3 -6 10 -3 15 9 13 12 11
12 -6z m-2080 -80 c0 -8 -4 -12 -9 -9 -5 3 -6 10 -3 15 9 13 12 11 12 -6z
m173 9 c0 -8 -19 -13 -24 -6 -3 5 1 9 9 9 8 0 15 -2 15 -3z m390 0 c0 -8 -19
-13 -24 -6 -3 5 1 9 9 9 8 0 15 -2 15 -3z m155 -3 c3 -5 2 -12 -3 -15 -5 -3
-9 1 -9 9 0 17 3 19 12 6z m415 3 c0 -8 -19 -13 -24 -6 -3 5 1 9 9 9 8 0 15
-2 15 -3z m-1930 -80 c0 -8 -19 -13 -24 -6 -3 5 1 9 9 9 8 0 15 -2 15 -3z
m320 0 c0 -8 -19 -13 -24 -6 -3 5 1 9 9 9 8 0 15 -2 15 -3z m1275 -3 c3 -5 2
-12 -3 -15 -5 -3 -9 1 -9 9 0 17 3 19 12 6z m1396 -14 c-10 -9 -11 -8 -5 6 3
10 9 15 12 12 3 -3 0 -11 -7 -18z m-2514 -62 c0 -8 -4 -12 -9 -9 -5 3 -6 10
-3 15 9 13 12 11 12 -6z m247 -3 c3 -5 -1 -9 -9 -9 -8 0 -12 4 -9 9 3 4 7 8 9
8 2 0 6 -4 9 -8z m311 -1 c3 -5 2 -12 -3 -15 -5 -3 -9 1 -9 9 0 17 3 19 12 6z
m962 -6 c0 -8 -4 -12 -9 -9 -5 3 -6 10 -3 15 9 13 12 11 12 -6z m327 7 c3 -5
-1 -9 -9 -9 -8 0 -12 4 -9 9 3 4 7 8 9 8 2 0 6 -4 9 -8z m196 -2 c0 -5 -4 -10
-10 -10 -5 0 -10 5 -10 10 0 6 5 10 10 10 6 0 10 -4 10 -10z m194 2 c3 -5 -1
-9 -9 -9 -8 0 -12 4 -9 9 3 4 7 8 9 8 2 0 6 -4 9 -8z m163 -7 c0 -8 -4 -12 -9
-9 -5 3 -6 10 -3 15 9 13 12 11 12 -6z m1843 -29 c0 -2 -7 -7 -16 -10 -8 -3
-12 -2 -9 4 6 10 25 14 25 6z m-2565 -35 c3 -5 2 -12 -3 -15 -5 -3 -9 1 -9 9
0 17 3 19 12 6z m-1760 -10 c3 -5 2 -12 -3 -15 -5 -3 -9 1 -9 9 0 17 3 19 12
6z m569 1 c3 -5 -1 -9 -9 -9 -8 0 -12 4 -9 9 3 4 7 8 9 8 2 0 6 -4 9 -8z m240
0 c3 -5 -1 -9 -9 -9 -8 0 -12 4 -9 9 3 4 7 8 9 8 2 0 6 -4 9 -8z m790 0 c3 -5
-1 -9 -9 -9 -8 0 -12 4 -9 9 3 4 7 8 9 8 2 0 6 -4 9 -8z m326 2 c0 -8 -19 -13
-24 -6 -3 5 1 9 9 9 8 0 15 -2 15 -3z m410 0 c0 -8 -19 -13 -24 -6 -3 5 1 9 9
9 8 0 15 -2 15 -3z m1750 -44 c0 -5 -2 -10 -4 -10 -3 0 -8 5 -11 10 -3 6 -1
10 4 10 6 0 11 -4 11 -10z m-3843 -35 c0 -8 -4 -12 -9 -9 -5 3 -6 10 -3 15 9
13 12 11 12 -6z m4240 0 c0 -8 -4 -12 -9 -9 -5 3 -6 10 -3 15 9 13 12 11 12
-6z m-4717 -1 c0 -8 -19 -13 -24 -6 -3 5 1 9 9 9 8 0 15 -2 15 -3z m714 -2 c3
-5 -1 -9 -9 -9 -8 0 -12 4 -9 9 3 4 7 8 9 8 2 0 6 -4 9 -8z m566 2 c0 -8 -19
-13 -24 -6 -3 5 1 9 9 9 8 0 15 -2 15 -3z m397 -9 c0 -8 -4 -12 -9 -9 -5 3 -6
10 -3 15 9 13 12 11 12 -6z m2758 -43 c-3 -3 -11 0 -18 7 -9 10 -8 11 6 5 10
-3 15 -9 12 -12z m-4598 -27 c0 -8 -4 -12 -9 -9 -5 3 -6 10 -3 15 9 13 12 11
12 -6z m1280 0 c0 -8 -4 -12 -9 -9 -5 3 -6 10 -3 15 9 13 12 11 12 -6z m-1362
-4 c3 -5 2 -12 -3 -15 -5 -3 -9 1 -9 9 0 17 3 19 12 6z m249 1 c3 -5 -1 -9 -9
-9 -8 0 -12 4 -9 9 3 4 7 8 9 8 2 0 6 -4 9 -8z m1031 -1 c3 -5 2 -12 -3 -15
-5 -3 -9 1 -9 9 0 17 3 19 12 6z m249 1 c3 -5 -1 -9 -9 -9 -8 0 -12 4 -9 9 3
4 7 8 9 8 2 0 6 -4 9 -8z m240 0 c3 -5 -1 -9 -9 -9 -8 0 -12 4 -9 9 3 4 7 8 9
8 2 0 6 -4 9 -8z m806 2 c0 -8 -19 -13 -24 -6 -3 5 1 9 9 9 8 0 15 -2 15 -3z
m70 0 c0 -8 -19 -13 -24 -6 -3 5 1 9 9 9 8 0 15 -2 15 -3z m1994 -2 c3 -5 -1
-9 -9 -9 -8 0 -12 4 -9 9 3 4 7 8 9 8 2 0 6 -4 9 -8z m90 0 c3 -5 -1 -9 -9 -9
-8 0 -12 4 -9 9 3 4 7 8 9 8 2 0 6 -4 9 -8z m390 0 c3 -5 -1 -9 -9 -9 -8 0
-12 4 -9 9 3 4 7 8 9 8 2 0 6 -4 9 -8z m-3037 -77 c0 -8 -4 -12 -9 -9 -5 3 -6
10 -3 15 9 13 12 11 12 -6z m320 0 c0 -8 -4 -12 -9 -9 -5 3 -6 10 -3 15 9 13
12 11 12 -6z m398 6 c3 -5 2 -12 -3 -15 -5 -3 -9 1 -9 9 0 17 3 19 12 6z
m-2075 -7 c0 -8 -19 -13 -24 -6 -3 5 1 9 9 9 8 0 15 -2 15 -3z m4555 -3 c3 -5
2 -12 -3 -15 -5 -3 -9 1 -9 9 0 17 3 19 12 6z m-4698 -36 c0 -8 -4 -12 -9 -9
-5 3 -6 10 -3 15 9 13 12 11 12 -6z m-220 -40 c0 -8 -4 -15 -9 -15 -10 0 -11
14 -1 23 9 10 10 9 10 -8z m598 6 c3 -5 2 -12 -3 -15 -5 -3 -9 1 -9 9 0 17 3
19 12 6z m240 0 c3 -5 2 -12 -3 -15 -5 -3 -9 1 -9 9 0 17 3 19 12 6z m3958 -6
c-3 -9 -8 -14 -10 -11 -3 3 -2 9 2 15 9 16 15 13 8 -4z m-4593 -1 c0 -8 -19
-13 -24 -6 -3 5 1 9 9 9 8 0 15 -2 15 -3z m1115 -3 c3 -5 2 -12 -3 -15 -5 -3
-9 1 -9 9 0 17 3 19 12 6z m240 0 c3 -5 2 -12 -3 -15 -5 -3 -9 1 -9 9 0 17 3
19 12 6z m2569 1 c3 -5 -1 -9 -9 -9 -8 0 -12 4 -9 9 3 4 7 8 9 8 2 0 6 -4 9
-8z m246 2 c0 -8 -19 -13 -24 -6 -3 5 1 9 9 9 8 0 15 -2 15 -3z m624 -2 c3 -5
-1 -9 -9 -9 -8 0 -12 4 -9 9 3 4 7 8 9 8 2 0 6 -4 9 -8z m201 -41 c3 -5 2 -12
-3 -15 -5 -3 -9 1 -9 9 0 17 3 19 12 6z m-5560 -40 c3 -5 2 -12 -3 -15 -5 -3
-9 1 -9 9 0 17 3 19 12 6z m242 -6 c0 -8 -4 -12 -9 -9 -5 3 -6 10 -3 15 9 13
12 11 12 -6z m1133 9 c0 -8 -19 -13 -24 -6 -3 5 1 9 9 9 8 0 15 -2 15 -3z
m630 0 c0 -8 -19 -13 -24 -6 -3 5 1 9 9 9 8 0 15 -2 15 -3z m320 0 c0 -8 -19
-13 -24 -6 -3 5 1 9 9 9 8 0 15 -2 15 -3z m404 -2 c3 -5 -1 -9 -9 -9 -8 0 -12
4 -9 9 3 4 7 8 9 8 2 0 6 -4 9 -8z m2313 -7 c0 -8 -4 -12 -9 -9 -5 3 -6 10 -3
15 9 13 12 11 12 -6z m238 -64 c3 -5 2 -12 -3 -15 -5 -3 -9 1 -9 9 0 17 3 19
12 6z m-4240 -10 c3 -5 2 -12 -3 -15 -5 -3 -9 1 -9 9 0 17 3 19 12 6z m239 1
c3 -5 -1 -9 -9 -9 -8 0 -12 4 -9 9 3 4 7 8 9 8 2 0 6 -4 9 -8z m896 2 c0 -8
-19 -13 -24 -6 -3 5 1 9 9 9 8 0 15 -2 15 -3z m320 0 c0 -8 -19 -13 -24 -6 -3
5 1 9 9 9 8 0 15 -2 15 -3z m1985 -3 c3 -5 2 -12 -3 -15 -5 -3 -9 1 -9 9 0 17
3 19 12 6z m85 3 c0 -8 -19 -13 -24 -6 -3 5 1 9 9 9 8 0 15 -2 15 -3z m797 -9
c0 -8 -4 -12 -9 -9 -5 3 -6 10 -3 15 9 13 12 11 12 -6z m-4560 -70 c0 -8 -4
-12 -9 -9 -5 3 -6 10 -3 15 9 13 12 11 12 -6z m3920 0 c0 -8 -4 -12 -9 -9 -5
3 -6 10 -3 15 9 13 12 11 12 -6z m-4553 -3 c3 -5 -1 -9 -9 -9 -8 0 -12 4 -9 9
3 4 7 8 9 8 2 0 6 -4 9 -8z m187 -15 c-10 -9 -11 -8 -5 6 3 10 9 15 12 12 3
-3 0 -11 -7 -18z m1566 8 c0 -8 -4 -12 -9 -9 -5 3 -6 10 -3 15 9 13 12 11 12
-6z m3047 7 c3 -5 -1 -9 -9 -9 -8 0 -12 4 -9 9 3 4 7 8 9 8 2 0 6 -4 9 -8z
m553 -7 c0 -8 -4 -12 -9 -9 -5 3 -6 10 -3 15 9 13 12 11 12 -6z m238 6 c3 -5
2 -12 -3 -15 -5 -3 -9 1 -9 9 0 17 3 19 12 6z m-4160 -70 c3 -5 2 -12 -3 -15
-5 -3 -9 1 -9 9 0 17 3 19 12 6z m3520 0 c3 -5 2 -12 -3 -15 -5 -3 -9 1 -9 9
0 17 3 19 12 6z m562 -6 c0 -8 -4 -12 -9 -9 -5 3 -6 10 -3 15 9 13 12 11 12
-6z m-4802 -4 c3 -5 2 -12 -3 -15 -5 -3 -9 1 -9 9 0 17 3 19 12 6z m559 1 c3
-5 -1 -9 -9 -9 -8 0 -12 4 -9 9 3 4 7 8 9 8 2 0 6 -4 9 -8z m330 0 c3 -5 -1
-9 -9 -9 -8 0 -12 4 -9 9 3 4 7 8 9 8 2 0 6 -4 9 -8z m556 2 c0 -8 -19 -13
-24 -6 -3 5 1 9 9 9 8 0 15 -2 15 -3z m330 0 c0 -8 -19 -13 -24 -6 -3 5 1 9 9
9 8 0 15 -2 15 -3z m240 0 c0 -8 -19 -13 -24 -6 -3 5 1 9 9 9 8 0 15 -2 15 -3z
m1667 -9 c0 -8 -4 -12 -9 -9 -5 3 -6 10 -3 15 9 13 12 11 12 -6z m397 7 c3 -5
-1 -9 -9 -9 -8 0 -12 4 -9 9 3 4 7 8 9 8 2 0 6 -4 9 -8z m-4877 -77 c0 -8 -4
-12 -9 -9 -5 3 -6 10 -3 15 9 13 12 11 12 -6z m560 0 c0 -8 -4 -12 -9 -9 -5 3
-6 10 -3 15 9 13 12 11 12 -6z m1520 0 c0 -8 -4 -12 -9 -9 -5 3 -6 10 -3 15 9
13 12 11 12 -6z m3840 0 c0 -8 -4 -12 -9 -9 -5 3 -6 10 -3 15 9 13 12 11 12
-6z m-5993 -3 c3 -5 -1 -9 -9 -9 -8 0 -12 4 -9 9 3 4 7 8 9 8 2 0 6 -4 9 -8z
m310 0 c3 -5 -1 -9 -9 -9 -8 0 -12 4 -9 9 3 4 7 8 9 8 2 0 6 -4 9 -8z m400 0
c3 -5 -1 -9 -9 -9 -8 0 -12 4 -9 9 3 4 7 8 9 8 2 0 6 -4 9 -8z m563 -7 c0 -8
-4 -12 -9 -9 -5 3 -6 10 -3 15 9 13 12 11 12 -6z m800 0 c0 -8 -4 -12 -9 -9
-5 3 -6 10 -3 15 9 13 12 11 12 -6z m3883 -35 c0 -5 -2 -10 -4 -10 -3 0 -8 5
-11 10 -3 6 -1 10 4 10 6 0 11 -4 11 -10z m-45 -29 c3 -5 2 -12 -3 -15 -5 -3
-9 1 -9 9 0 17 3 19 12 6z m-4791 -9 c3 -5 -1 -9 -9 -9 -8 0 -12 4 -9 9 3 4 7
8 9 8 2 0 6 -4 9 -8z m631 -1 c3 -5 2 -12 -3 -15 -5 -3 -9 1 -9 9 0 17 3 19
12 6z m1205 3 c0 -8 -19 -13 -24 -6 -3 5 1 9 9 9 8 0 15 -2 15 -3z m2794 -2
c3 -5 -1 -9 -9 -9 -8 0 -12 4 -9 9 3 4 7 8 9 8 2 0 6 -4 9 -8z m243 -7 c0 -8
-4 -12 -9 -9 -5 3 -6 10 -3 15 9 13 12 11 12 -6z m-4560 -70 c0 -8 -4 -12 -9
-9 -5 3 -6 10 -3 15 9 13 12 11 12 -6z m3520 0 c0 -8 -4 -12 -9 -9 -5 3 -6 10
-3 15 9 13 12 11 12 -6z m400 0 c0 -8 -4 -12 -9 -9 -5 3 -6 10 -3 15 9 13 12
11 12 -6z m-5277 -1 c0 -8 -19 -13 -24 -6 -3 5 1 9 9 9 8 0 15 -2 15 -3z m397
-9 c0 -8 -4 -12 -9 -9 -5 3 -6 10 -3 15 9 13 12 11 12 -6z m407 7 c3 -5 -1 -9
-9 -9 -8 0 -12 4 -9 9 3 4 7 8 9 8 2 0 6 -4 9 -8z m1276 2 c0 -8 -19 -13 -24
-6 -3 5 1 9 9 9 8 0 15 -2 15 -3z m394 -2 c3 -5 -1 -9 -9 -9 -8 0 -12 4 -9 9
3 4 7 8 9 8 2 0 6 -4 9 -8z m90 0 c3 -5 -1 -9 -9 -9 -8 0 -12 4 -9 9 3 4 7 8
9 8 2 0 6 -4 9 -8z m240 0 c3 -5 -1 -9 -9 -9 -8 0 -12 4 -9 9 3 4 7 8 9 8 2 0
6 -4 9 -8z m1430 0 c3 -5 -1 -9 -9 -9 -8 0 -12 4 -9 9 3 4 7 8 9 8 2 0 6 -4 9
-8z m416 2 c0 -8 -19 -13 -24 -6 -3 5 1 9 9 9 8 0 15 -2 15 -3z m-1800 -38 c0
-2 -8 -10 -17 -17 -16 -13 -17 -12 -4 4 13 16 21 21 21 13z m-2695 -35 c3 -5
2 -12 -3 -15 -5 -3 -9 1 -9 9 0 17 3 19 12 6z m962 -16 c0 -8 -4 -12 -9 -9 -5
3 -6 10 -3 15 9 13 12 11 12 -6z m797 7 c3 -5 -1 -9 -9 -9 -8 0 -12 4 -9 9 3
4 7 8 9 8 2 0 6 -4 9 -8z m240 0 c3 -5 -1 -9 -9 -9 -8 0 -12 4 -9 9 3 4 7 8 9
8 2 0 6 -4 9 -8z m723 -7 c0 -8 -4 -12 -9 -9 -5 3 -6 10 -3 15 9 13 12 11 12
-6z m1920 0 c0 -8 -4 -12 -9 -9 -5 3 -6 10 -3 15 9 13 12 11 12 -6z m1203 9
c0 -8 -19 -13 -24 -6 -3 5 1 9 9 9 8 0 15 -2 15 -3z m-5443 -79 c0 -8 -4 -12
-9 -9 -5 3 -6 10 -3 15 9 13 12 11 12 -6z m1838 6 c3 -5 2 -12 -3 -15 -5 -3
-9 1 -9 9 0 17 3 19 12 6z m-2641 -9 c3 -5 -1 -9 -9 -9 -8 0 -12 4 -9 9 3 4 7
8 9 8 2 0 6 -4 9 -8z m570 0 c3 -5 -1 -9 -9 -9 -8 0 -12 4 -9 9 3 4 7 8 9 8 2
0 6 -4 9 -8z m311 -1 c3 -5 2 -12 -3 -15 -5 -3 -9 1 -9 9 0 17 3 19 12 6z
m242 -6 c0 -8 -4 -12 -9 -9 -5 3 -6 10 -3 15 9 13 12 11 12 -6z m77 7 c3 -5
-1 -9 -9 -9 -8 0 -12 4 -9 9 3 4 7 8 9 8 2 0 6 -4 9 -8z m416 2 c0 -8 -19 -13
-24 -6 -3 5 1 9 9 9 8 0 15 -2 15 -3z m947 -9 c0 -8 -4 -12 -9 -9 -5 3 -6 10
-3 15 9 13 12 11 12 -6z m317 7 c3 -5 -1 -9 -9 -9 -8 0 -12 4 -9 9 3 4 7 8 9
8 2 0 6 -4 9 -8z m1926 2 c0 -8 -19 -13 -24 -6 -3 5 1 9 9 9 8 0 15 -2 15 -3z
m155 -3 c3 -5 2 -12 -3 -15 -5 -3 -9 1 -9 9 0 17 3 19 12 6z m805 3 c0 -8 -19
-13 -24 -6 -3 5 1 9 9 9 8 0 15 -2 15 -3z m155 -3 c3 -5 2 -12 -3 -15 -5 -3
-9 1 -9 9 0 17 3 19 12 6z m480 0 c3 -5 2 -12 -3 -15 -5 -3 -9 1 -9 9 0 17 3
19 12 6z m-1038 -76 c0 -8 -4 -12 -9 -9 -5 3 -6 10 -3 15 9 13 12 11 12 -6z
m1598 6 c3 -5 2 -12 -3 -15 -5 -3 -9 1 -9 9 0 17 3 19 12 6z m-6720 -10 c3 -5
2 -12 -3 -15 -5 -3 -9 1 -9 9 0 17 3 19 12 6z m1849 1 c3 -5 -1 -9 -9 -9 -8 0
-12 4 -9 9 3 4 7 8 9 8 2 0 6 -4 9 -8z m73 -7 c0 -8 -4 -12 -9 -9 -5 3 -6 10
-3 15 9 13 12 11 12 -6z m733 9 c0 -8 -19 -13 -24 -6 -3 5 1 9 9 9 8 0 15 -2
15 -3z m341 -17 c-10 -9 -11 -8 -5 6 3 10 9 15 12 12 3 -3 0 -11 -7 -18z
m1573 15 c3 -5 -1 -9 -9 -9 -8 0 -12 4 -9 9 3 4 7 8 9 8 2 0 6 -4 9 -8z m720
0 c3 -5 -1 -9 -9 -9 -8 0 -12 4 -9 9 3 4 7 8 9 8 2 0 6 -4 9 -8z m1393 -37 c0
-8 -4 -12 -9 -9 -5 3 -6 10 -3 15 9 13 12 11 12 -6z m-5002 -34 c3 -5 2 -12
-3 -15 -5 -3 -9 1 -9 9 0 17 3 19 12 6z m4960 0 c3 -5 2 -12 -3 -15 -5 -3 -9
1 -9 9 0 17 3 19 12 6z m-6238 -16 c0 -8 -4 -12 -9 -9 -5 3 -6 10 -3 15 9 13
12 11 12 -6z m727 7 c3 -5 -1 -9 -9 -9 -8 0 -12 4 -9 9 3 4 7 8 9 8 2 0 6 -4
9 -8z m1751 -1 c3 -5 2 -12 -3 -15 -5 -3 -9 1 -9 9 0 17 3 19 12 6z m240 0 c3
-5 2 -12 -3 -15 -5 -3 -9 1 -9 9 0 17 3 19 12 6z m1120 0 c3 -5 2 -12 -3 -15
-5 -3 -9 1 -9 9 0 17 3 19 12 6z m735 3 c0 -8 -19 -13 -24 -6 -3 5 1 9 9 9 8
0 15 -2 15 -3z m784 -2 c3 -5 -1 -9 -9 -9 -8 0 -12 4 -9 9 3 4 7 8 9 8 2 0 6
-4 9 -8z m246 2 c0 -8 -19 -13 -24 -6 -3 5 1 9 9 9 8 0 15 -2 15 -3z m234 -2
c3 -5 -1 -9 -9 -9 -8 0 -12 4 -9 9 3 4 7 8 9 8 2 0 6 -4 9 -8z m650 0 c3 -5
-1 -9 -9 -9 -8 0 -12 4 -9 9 3 4 7 8 9 8 2 0 6 -4 9 -8z m-6431 -37 c-3 -9 -8
-14 -10 -11 -3 3 -2 9 2 15 9 16 15 13 8 -4z m187 -5 c0 -5 -4 -10 -10 -10 -5
0 -10 5 -10 10 0 6 5 10 10 10 6 0 10 -4 10 -10z m245 0 c3 -6 -1 -7 -9 -4
-18 7 -21 14 -7 14 6 0 13 -4 16 -10z m-488 -35 c0 -8 -4 -12 -9 -9 -5 3 -6
10 -3 15 9 13 12 11 12 -6z m2640 0 c0 -8 -4 -12 -9 -9 -5 3 -6 10 -3 15 9 13
12 11 12 -6z m1920 0 c0 -8 -4 -12 -9 -9 -5 3 -6 10 -3 15 9 13 12 11 12 -6z
m960 0 c0 -8 -4 -12 -9 -9 -5 3 -6 10 -3 15 9 13 12 11 12 -6z m958 6 c3 -5 2
-12 -3 -15 -5 -3 -9 1 -9 9 0 17 3 19 12 6z m-7040 -10 c3 -5 2 -12 -3 -15 -5
-3 -9 1 -9 9 0 17 3 19 12 6z m1119 1 c3 -5 -1 -9 -9 -9 -8 0 -12 4 -9 9 3 4
7 8 9 8 2 0 6 -4 9 -8z m803 -7 c0 -8 -4 -12 -9 -9 -5 3 -6 10 -3 15 9 13 12
11 12 -6z m247 7 c3 -5 -1 -9 -9 -9 -8 0 -12 4 -9 9 3 4 7 8 9 8 2 0 6 -4 9
-8z m486 2 c0 -8 -19 -13 -24 -6 -3 5 1 9 9 9 8 0 15 -2 15 -3z m1434 -2 c3
-5 -1 -9 -9 -9 -8 0 -12 4 -9 9 3 4 7 8 9 8 2 0 6 -4 9 -8z m240 0 c3 -5 -1
-9 -9 -9 -8 0 -12 4 -9 9 3 4 7 8 9 8 2 0 6 -4 9 -8z m246 2 c0 -8 -19 -13
-24 -6 -3 5 1 9 9 9 8 0 15 -2 15 -3z m1027 -9 c0 -8 -4 -12 -9 -9 -5 3 -6 10
-3 15 9 13 12 11 12 -6z m-3922 -64 c3 -5 2 -12 -3 -15 -5 -3 -9 1 -9 9 0 17
3 19 12 6z m1920 0 c3 -5 2 -12 -3 -15 -5 -3 -9 1 -9 9 0 17 3 19 12 6z m2880
0 c3 -5 2 -12 -3 -15 -5 -3 -9 1 -9 9 0 17 3 19 12 6z m-6158 -16 c0 -8 -4
-12 -9 -9 -5 3 -6 10 -3 15 9 13 12 11 12 -6z m573 9 c0 -8 -19 -13 -24 -6 -3
5 1 9 9 9 8 0 15 -2 15 -3z m554 -2 c3 -5 -1 -9 -9 -9 -8 0 -12 4 -9 9 3 4 7
8 9 8 2 0 6 -4 9 -8z m1430 0 c3 -5 -1 -9 -9 -9 -8 0 -12 4 -9 9 3 4 7 8 9 8
2 0 6 -4 9 -8z m806 2 c0 -8 -19 -13 -24 -6 -3 5 1 9 9 9 8 0 15 -2 15 -3z
m1114 -2 c3 -5 -1 -9 -9 -9 -8 0 -12 4 -9 9 3 4 7 8 9 8 2 0 6 -4 9 -8z m496
2 c0 -8 -19 -13 -24 -6 -3 5 1 9 9 9 8 0 15 -2 15 -3z m954 -2 c3 -5 -1 -9 -9
-9 -8 0 -12 4 -9 9 3 4 7 8 9 8 2 0 6 -4 9 -8z m476 2 c0 -8 -19 -13 -24 -6
-3 5 1 9 9 9 8 0 15 -2 15 -3z m490 0 c0 -8 -19 -13 -24 -6 -3 5 1 9 9 9 8 0
15 -2 15 -3z m-6173 -79 c0 -8 -4 -12 -9 -9 -5 3 -6 10 -3 15 9 13 12 11 12
-6z m1200 0 c0 -8 -4 -12 -9 -9 -5 3 -6 10 -3 15 9 13 12 11 12 -6z m480 0 c0
-8 -4 -12 -9 -9 -5 3 -6 10 -3 15 9 13 12 11 12 -6z m1438 6 c3 -5 2 -12 -3
-15 -5 -3 -9 1 -9 9 0 17 3 19 12 6z m482 -6 c0 -8 -4 -12 -9 -9 -5 3 -6 10
-3 15 9 13 12 11 12 -6z m1918 6 c3 -5 2 -12 -3 -15 -5 -3 -9 1 -9 9 0 17 3
19 12 6z m720 0 c3 -5 2 -12 -3 -15 -5 -3 -9 1 -9 9 0 17 3 19 12 6z m-7361
-9 c3 -5 -1 -9 -9 -9 -8 0 -12 4 -9 9 3 4 7 8 9 8 2 0 6 -4 9 -8z m803 -7 c0
-8 -4 -12 -9 -9 -5 3 -6 10 -3 15 9 13 12 11 12 -6z m400 0 c0 -8 -4 -12 -9
-9 -5 3 -6 10 -3 15 9 13 12 11 12 -6z m243 9 c0 -8 -19 -13 -24 -6 -3 5 1 9
9 9 8 0 15 -2 15 -3z m795 -3 c3 -5 2 -12 -3 -15 -5 -3 -9 1 -9 9 0 17 3 19
12 6z m962 -6 c0 -8 -4 -12 -9 -9 -5 3 -6 10 -3 15 9 13 12 11 12 -6z m733 9
c0 -8 -19 -13 -24 -6 -3 5 1 9 9 9 8 0 15 -2 15 -3z m225 -3 c3 -5 2 -12 -3
-15 -5 -3 -9 1 -9 9 0 17 3 19 12 6z m729 1 c3 -5 -1 -9 -9 -9 -8 0 -12 4 -9
9 3 4 7 8 9 8 2 0 6 -4 9 -8z m233 -7 c0 -8 -4 -12 -9 -9 -5 3 -6 10 -3 15 9
13 12 11 12 -6z m1438 6 c3 -5 2 -12 -3 -15 -5 -3 -9 1 -9 9 0 17 3 19 12 6z
m400 0 c3 -5 2 -12 -3 -15 -5 -3 -9 1 -9 9 0 17 3 19 12 6z m-6865 -77 c0 -8
-19 -13 -24 -6 -3 5 1 9 9 9 8 0 15 -2 15 -3z m234 -2 c3 -5 -1 -9 -9 -9 -8 0
-12 4 -9 9 3 4 7 8 9 8 2 0 6 -4 9 -8z m1446 2 c0 -8 -19 -13 -24 -6 -3 5 1 9
9 9 8 0 15 -2 15 -3z m714 -2 c3 -5 -1 -9 -9 -9 -8 0 -12 4 -9 9 3 4 7 8 9 8
2 0 6 -4 9 -8z m966 2 c0 -8 -19 -13 -24 -6 -3 5 1 9 9 9 8 0 15 -2 15 -3z
m954 -2 c3 -5 -1 -9 -9 -9 -8 0 -12 4 -9 9 3 4 7 8 9 8 2 0 6 -4 9 -8z m1031
-1 c3 -5 2 -12 -3 -15 -5 -3 -9 1 -9 9 0 17 3 19 12 6z m242 -6 c0 -8 -4 -12
-9 -9 -5 3 -6 10 -3 15 9 13 12 11 12 -6z m173 9 c0 -8 -19 -13 -24 -6 -3 5 1
9 9 9 8 0 15 -2 15 -3z m-5373 -79 c0 -8 -4 -12 -9 -9 -5 3 -6 10 -3 15 9 13
12 11 12 -6z m240 0 c0 -8 -4 -12 -9 -9 -5 3 -6 10 -3 15 9 13 12 11 12 -6z
m960 0 c0 -8 -4 -12 -9 -9 -5 3 -6 10 -3 15 9 13 12 11 12 -6z m958 6 c3 -5 2
-12 -3 -15 -5 -3 -9 1 -9 9 0 17 3 19 12 6z m1762 -6 c0 -8 -4 -12 -9 -9 -5 3
-6 10 -3 15 9 13 12 11 12 -6z m718 6 c3 -5 2 -12 -3 -15 -5 -3 -9 1 -9 9 0
17 3 19 12 6z m242 -6 c0 -8 -4 -12 -9 -9 -5 3 -6 10 -3 15 9 13 12 11 12 -6z
m-5283 -3 c3 -5 -1 -9 -9 -9 -8 0 -12 4 -9 9 3 4 7 8 9 8 2 0 6 -4 9 -8z m960
0 c3 -5 -1 -9 -9 -9 -8 0 -12 4 -9 9 3 4 7 8 9 8 2 0 6 -4 9 -8z m240 0 c3 -5
-1 -9 -9 -9 -8 0 -12 4 -9 9 3 4 7 8 9 8 2 0 6 -4 9 -8z m726 2 c0 -8 -19 -13
-24 -6 -3 5 1 9 9 9 8 0 15 -2 15 -3z m240 0 c0 -8 -19 -13 -24 -6 -3 5 1 9 9
9 8 0 15 -2 15 -3z m804 -2 c3 -5 -1 -9 -9 -9 -8 0 -12 4 -9 9 3 4 7 8 9 8 2
0 6 -4 9 -8z m246 2 c0 -8 -19 -13 -24 -6 -3 5 1 9 9 9 8 0 15 -2 15 -3z m424
-10 c3 -8 2 -12 -4 -9 -6 3 -10 10 -10 16 0 14 7 11 14 -7z m850 8 c3 -5 -1
-9 -9 -9 -8 0 -12 4 -9 9 3 4 7 8 9 8 2 0 6 -4 9 -8z m240 0 c3 -5 -1 -9 -9
-9 -8 0 -12 4 -9 9 3 4 7 8 9 8 2 0 6 -4 9 -8z m720 0 c3 -5 -1 -9 -9 -9 -8 0
-12 4 -9 9 3 4 7 8 9 8 2 0 6 -4 9 -8z m240 0 c3 -5 -1 -9 -9 -9 -8 0 -12 4
-9 9 3 4 7 8 9 8 2 0 6 -4 9 -8z m1350 0 c3 -5 -1 -9 -9 -9 -8 0 -12 4 -9 9 3
4 7 8 9 8 2 0 6 -4 9 -8z m-3197 -77 c0 -8 -4 -12 -9 -9 -5 3 -6 10 -3 15 9
13 12 11 12 -6z m2318 6 c3 -5 2 -12 -3 -15 -5 -3 -9 1 -9 9 0 17 3 19 12 6z
m-6238 -16 c0 -8 -4 -12 -9 -9 -5 3 -6 10 -3 15 9 13 12 11 12 -6z m837 -1 c3
-8 2 -12 -4 -9 -6 3 -10 10 -10 16 0 14 7 11 14 -7z m2763 1 c0 -8 -4 -12 -9
-9 -5 3 -6 10 -3 15 9 13 12 11 12 -6z m3277 7 c3 -5 -1 -9 -9 -9 -8 0 -12 4
-9 9 3 4 7 8 9 8 2 0 6 -4 9 -8z m-5919 -71 c3 -5 2 -12 -3 -15 -5 -3 -9 1 -9
9 0 17 3 19 12 6z m3922 -6 c0 -8 -4 -12 -9 -9 -5 3 -6 10 -3 15 9 13 12 11
12 -6z m960 0 c0 -8 -4 -12 -9 -9 -5 3 -6 10 -3 15 9 13 12 11 12 -6z m240 0
c0 -8 -4 -12 -9 -9 -5 3 -6 10 -3 15 9 13 12 11 12 -6z m958 6 c3 -5 2 -12 -3
-15 -5 -3 -9 1 -9 9 0 17 3 19 12 6z m-6398 -16 c0 -8 -4 -12 -9 -9 -5 3 -6
10 -3 15 9 13 12 11 12 -6z m400 0 c0 -8 -4 -12 -9 -9 -5 3 -6 10 -3 15 9 13
12 11 12 -6z m560 0 c0 -8 -4 -12 -9 -9 -5 3 -6 10 -3 15 9 13 12 11 12 -6z
m813 9 c0 -8 -19 -13 -24 -6 -3 5 1 9 9 9 8 0 15 -2 15 -3z m65 -3 c3 -5 2
-12 -3 -15 -5 -3 -9 1 -9 9 0 17 3 19 12 6z m245 3 c0 -8 -19 -13 -24 -6 -3 5
1 9 9 9 8 0 15 -2 15 -3z m90 0 c0 -8 -19 -13 -24 -6 -3 5 1 9 9 9 8 0 15 -2
15 -3z m310 0 c0 -8 -19 -13 -24 -6 -3 5 1 9 9 9 8 0 15 -2 15 -3z m1204 -2
c3 -5 -1 -9 -9 -9 -8 0 -12 4 -9 9 3 4 7 8 9 8 2 0 6 -4 9 -8z m471 -1 c3 -5
2 -12 -3 -15 -5 -3 -9 1 -9 9 0 17 3 19 12 6z m249 1 c3 -5 -1 -9 -9 -9 -8 0
-12 4 -9 9 3 4 7 8 9 8 2 0 6 -4 9 -8z m711 -1 c3 -5 2 -12 -3 -15 -5 -3 -9 1
-9 9 0 17 3 19 12 6z m402 -6 c0 -8 -4 -12 -9 -9 -5 3 -6 10 -3 15 9 13 12 11
12 -6z m-5922 -64 c3 -5 2 -12 -3 -15 -5 -3 -9 1 -9 9 0 17 3 19 12 6z m240 0
c3 -5 2 -12 -3 -15 -5 -3 -9 1 -9 9 0 17 3 19 12 6z m960 0 c3 -5 2 -12 -3
-15 -5 -3 -9 1 -9 9 0 17 3 19 12 6z m802 -6 c0 -8 -4 -12 -9 -9 -5 3 -6 10
-3 15 9 13 12 11 12 -6z m1040 0 c0 -8 -4 -12 -9 -9 -5 3 -6 10 -3 15 9 13 12
11 12 -6z m878 6 c3 -5 2 -12 -3 -15 -5 -3 -9 1 -9 9 0 17 3 19 12 6z m242 -6
c0 -8 -4 -12 -9 -9 -5 3 -6 10 -3 15 9 13 12 11 12 -6z m960 0 c0 -8 -4 -12
-9 -9 -5 3 -6 10 -3 15 9 13 12 11 12 -6z m-5193 -3 c3 -5 -1 -9 -9 -9 -8 0
-12 4 -9 9 3 4 7 8 9 8 2 0 6 -4 9 -8z m1830 0 c3 -5 -1 -9 -9 -9 -8 0 -12 4
-9 9 3 4 7 8 9 8 2 0 6 -4 9 -8z m1530 0 c3 -5 -1 -9 -9 -9 -8 0 -12 4 -9 9 3
4 7 8 9 8 2 0 6 -4 9 -8z m396 2 c0 -8 -19 -13 -24 -6 -3 5 1 9 9 9 8 0 15 -2
15 -3z m1997 -79 c0 -8 -4 -12 -9 -9 -5 3 -6 10 -3 15 9 13 12 11 12 -6z
m-5602 -4 c3 -5 2 -12 -3 -15 -5 -3 -9 1 -9 9 0 17 3 19 12 6z m639 1 c3 -5
-1 -9 -9 -9 -8 0 -12 4 -9 9 3 4 7 8 9 8 2 0 6 -4 9 -8z m1920 0 c3 -5 -1 -9
-9 -9 -8 0 -12 4 -9 9 3 4 7 8 9 8 2 0 6 -4 9 -8z m896 2 c0 -8 -19 -13 -24
-6 -3 5 1 9 9 9 8 0 15 -2 15 -3z m1585 -3 c3 -5 2 -12 -3 -15 -5 -3 -9 1 -9
9 0 17 3 19 12 6z m240 0 c3 -5 2 -12 -3 -15 -5 -3 -9 1 -9 9 0 17 3 19 12 6z
m-1879 -47 c1 -9 0 -13 -4 -10 -3 4 -7 14 -8 22 -1 9 0 13 4 10 3 -4 7 -14 8
-22z m-2121 -23 c3 -5 2 -12 -3 -15 -5 -3 -9 1 -9 9 0 17 3 19 12 6z m1842 -6
c0 -8 -4 -12 -9 -9 -5 3 -6 10 -3 15 9 13 12 11 12 -6z m1760 0 c0 -8 -4 -12
-9 -9 -5 3 -6 10 -3 15 9 13 12 11 12 -6z m1438 6 c3 -5 2 -12 -3 -15 -5 -3
-9 1 -9 9 0 17 3 19 12 6z m-5995 -7 c0 -8 -19 -13 -24 -6 -3 5 1 9 9 9 8 0
15 -2 15 -3z m155 -3 c3 -5 2 -12 -3 -15 -5 -3 -9 1 -9 9 0 17 3 19 12 6z
m649 1 c3 -5 -1 -9 -9 -9 -8 0 -12 4 -9 9 3 4 7 8 9 8 2 0 6 -4 9 -8z m231 -1
c3 -5 2 -12 -3 -15 -5 -3 -9 1 -9 9 0 17 3 19 12 6z m169 1 c3 -5 -1 -9 -9 -9
-8 0 -12 4 -9 9 3 4 7 8 9 8 2 0 6 -4 9 -8z m316 2 c0 -8 -19 -13 -24 -6 -3 5
1 9 9 9 8 0 15 -2 15 -3z m315 -3 c3 -5 2 -12 -3 -15 -5 -3 -9 1 -9 9 0 17 3
19 12 6z m242 -6 c0 -8 -4 -12 -9 -9 -5 3 -6 10 -3 15 9 13 12 11 12 -6z m320
0 c0 -8 -4 -12 -9 -9 -5 3 -6 10 -3 15 9 13 12 11 12 -6z m243 9 c0 -8 -19
-13 -24 -6 -3 5 1 9 9 9 8 0 15 -2 15 -3z m394 -2 c3 -5 -1 -9 -9 -9 -8 0 -12
4 -9 9 3 4 7 8 9 8 2 0 6 -4 9 -8z m406 2 c0 -8 -19 -13 -24 -6 -3 5 1 9 9 9
8 0 15 -2 15 -3z m880 0 c0 -8 -19 -13 -24 -6 -3 5 1 9 9 9 8 0 15 -2 15 -3z
m1204 -2 c3 -5 -1 -9 -9 -9 -8 0 -12 4 -9 9 3 4 7 8 9 8 2 0 6 -4 9 -8z m316
2 c0 -8 -19 -13 -24 -6 -3 5 1 9 9 9 8 0 15 -2 15 -3z m-165 -73 c3 -5 2 -12
-3 -15 -5 -3 -9 1 -9 9 0 17 3 19 12 6z m-3985 -7 c0 -8 -19 -13 -24 -6 -3 5
1 9 9 9 8 0 15 -2 15 -3z m1920 0 c0 -8 -19 -13 -24 -6 -3 5 1 9 9 9 8 0 15
-2 15 -3z m1470 -4 c0 -5 -4 -10 -10 -10 -5 0 -10 5 -10 10 0 6 5 10 10 10 6
0 10 -4 10 -10z m274 2 c3 -5 -1 -9 -9 -9 -8 0 -12 4 -9 9 3 4 7 8 9 8 2 0 6
-4 9 -8z m641 -1 c3 -5 2 -12 -3 -15 -5 -3 -9 1 -9 9 0 17 3 19 12 6z m-5598
-76 c0 -8 -4 -12 -9 -9 -5 3 -6 10 -3 15 9 13 12 11 12 -6z m4878 6 c3 -5 2
-12 -3 -15 -5 -3 -9 1 -9 9 0 17 3 19 12 6z m-4641 -9 c3 -5 -1 -9 -9 -9 -8 0
-12 4 -9 9 3 4 7 8 9 8 2 0 6 -4 9 -8z m401 -1 c3 -5 2 -12 -3 -15 -5 -3 -9 1
-9 9 0 17 3 19 12 6z m1765 3 c0 -8 -19 -13 -24 -6 -3 5 1 9 9 9 8 0 15 -2 15
-3z m330 0 c0 -8 -19 -13 -24 -6 -3 5 1 9 9 9 8 0 15 -2 15 -3z m234 -2 c3 -5
-1 -9 -9 -9 -8 0 -12 4 -9 9 3 4 7 8 9 8 2 0 6 -4 9 -8z m476 2 c0 -8 -19 -13
-24 -6 -3 5 1 9 9 9 8 0 15 -2 15 -3z m155 -3 c3 -5 2 -12 -3 -15 -5 -3 -9 1
-9 9 0 17 3 19 12 6z m565 3 c0 -8 -19 -13 -24 -6 -3 5 1 9 9 9 8 0 15 -2 15
-3z m-3765 -73 c3 -5 2 -12 -3 -15 -5 -3 -9 1 -9 9 0 17 3 19 12 6z m2482 -6
c0 -8 -4 -12 -9 -9 -5 3 -6 10 -3 15 9 13 12 11 12 -6z m2638 6 c3 -5 2 -12
-3 -15 -5 -3 -9 1 -9 9 0 17 3 19 12 6z m240 0 c3 -5 2 -12 -3 -15 -5 -3 -9 1
-9 9 0 17 3 19 12 6z m-3351 -9 c3 -5 -1 -9 -9 -9 -8 0 -12 4 -9 9 3 4 7 8 9
8 2 0 6 -4 9 -8z m1436 2 c0 -8 -19 -13 -24 -6 -3 5 1 9 9 9 8 0 15 -2 15 -3z
m484 -2 c3 -5 -1 -9 -9 -9 -8 0 -12 4 -9 9 3 4 7 8 9 8 2 0 6 -4 9 -8z m631
-1 c3 -5 2 -12 -3 -15 -5 -3 -9 1 -9 9 0 17 3 19 12 6z m-1758 -76 c0 -8 -4
-12 -9 -9 -5 3 -6 10 -3 15 9 13 12 11 12 -6z m800 0 c0 -8 -4 -12 -9 -9 -5 3
-6 10 -3 15 9 13 12 11 12 -6z m237 -3 c3 -5 -1 -9 -9 -9 -8 0 -12 4 -9 9 3 4
7 8 9 8 2 0 6 -4 9 -8z m970 0 c3 -5 -1 -9 -9 -9 -8 0 -12 4 -9 9 3 4 7 8 9 8
2 0 6 -4 9 -8z m-4674 -38 c0 -8 -19 -13 -24 -6 -3 5 1 9 9 9 8 0 15 -2 15 -3z
m2987 -39 c0 -8 -4 -12 -9 -9 -5 3 -6 10 -3 15 9 13 12 11 12 -6z m238 6 c3
-5 2 -12 -3 -15 -5 -3 -9 1 -9 9 0 17 3 19 12 6z m882 -6 c0 -8 -4 -12 -9 -9
-5 3 -6 10 -3 15 9 13 12 11 12 -6z m-82 -4 c3 -5 2 -12 -3 -15 -5 -3 -9 1 -9
9 0 17 3 19 12 6z m1280 0 c3 -5 2 -12 -3 -15 -5 -3 -9 1 -9 9 0 17 3 19 12 6z
m-35 -37 c0 -8 -19 -13 -24 -6 -3 5 1 9 9 9 8 0 15 -2 15 -3z m-443 -39 c0 -8
-4 -12 -9 -9 -5 3 -6 10 -3 15 9 13 12 11 12 -6z m-1717 -5 c0 -5 -4 -10 -10
-10 -5 0 -10 5 -10 10 0 6 5 10 10 10 6 0 10 -4 10 -10z m360 4 c0 -8 -19 -13
-24 -6 -3 5 1 9 9 9 8 0 15 -2 15 -3z m1755 -3 c3 -5 2 -12 -3 -15 -5 -3 -9 1
-9 9 0 17 3 19 12 6z m-195 -37 c0 -8 -19 -13 -24 -6 -3 5 1 9 9 9 8 0 15 -2
15 -3z m-2036 -42 c3 -5 -1 -9 -9 -9 -8 0 -12 4 -9 9 3 4 7 8 9 8 2 0 6 -4 9
-8z m326 2 c0 -8 -19 -13 -24 -6 -3 5 1 9 9 9 8 0 15 -2 15 -3z m320 0 c0 -8
-19 -13 -24 -6 -3 5 1 9 9 9 8 0 15 -2 15 -3z m1424 -2 c3 -5 -1 -9 -9 -9 -8
0 -12 4 -9 9 3 4 7 8 9 8 2 0 6 -4 9 -8z m-957 -77 c0 -8 -4 -12 -9 -9 -5 3
-6 10 -3 15 9 13 12 11 12 -6z m-962 -4 c3 -5 2 -12 -3 -15 -5 -3 -9 1 -9 9 0
17 3 19 12 6z m1199 1 c3 -5 -1 -9 -9 -9 -8 0 -12 4 -9 9 3 4 7 8 9 8 2 0 6
-4 9 -8z m-874 -78 c0 -8 -19 -13 -24 -6 -3 5 1 9 9 9 8 0 15 -2 15 -3z m404
-2 c3 -5 -1 -9 -9 -9 -8 0 -12 4 -9 9 3 4 7 8 9 8 2 0 6 -4 9 -8z m-247 -77
c0 -8 -4 -12 -9 -9 -5 3 -6 10 -3 15 9 13 12 11 12 -6z m483 -1 c0 -8 -19 -13
-24 -6 -3 5 1 9 9 9 8 0 15 -2 15 -3z m395 -3 c3 -5 2 -12 -3 -15 -5 -3 -9 1
-9 9 0 17 3 19 12 6z m240 0 c3 -5 2 -12 -3 -15 -5 -3 -9 1 -9 9 0 17 3 19 12
6z m-950 -41 c3 -6 -1 -7 -9 -4 -18 7 -21 14 -7 14 6 0 13 -4 16 -10z m-488
-45 c0 -8 -4 -12 -9 -9 -5 3 -6 10 -3 15 9 13 12 11 12 -6z m240 0 c0 -8 -4
-12 -9 -9 -5 3 -6 10 -3 15 9 13 12 11 12 -6z m1040 -70 c0 -8 -4 -12 -9 -9
-5 3 -6 10 -3 15 9 13 12 11 12 -6z m-82 -4 c3 -5 2 -12 -3 -15 -5 -3 -9 1 -9
9 0 17 3 19 12 6z m-478 -46 c0 -8 -4 -12 -9 -9 -5 3 -6 10 -3 15 9 13 12 11
12 -6z m160 -40 c0 -8 -4 -12 -9 -9 -5 3 -6 10 -3 15 9 13 12 11 12 -6z m157
7 c3 -5 -1 -9 -9 -9 -8 0 -12 4 -9 9 3 4 7 8 9 8 2 0 6 -4 9 -8z m-794 -78 c0
-8 -19 -13 -24 -6 -3 5 1 9 9 9 8 0 15 -2 15 -3z m1040 0 c0 -8 -19 -13 -24
-6 -3 5 1 9 9 9 8 0 15 -2 15 -3z m-165 -73 c3 -5 2 -12 -3 -15 -5 -3 -9 1 -9
9 0 17 3 19 12 6z m-625 -7 c0 -8 -19 -13 -24 -6 -3 5 1 9 9 9 8 0 15 -2 15
-3z m-175 -153 c3 -5 2 -12 -3 -15 -5 -3 -9 1 -9 9 0 17 3 19 12 6z m320 -10
c3 -5 2 -12 -3 -15 -5 -3 -9 1 -9 9 0 17 3 19 12 6z m-395 -201 c0 -5 -4 -10
-10 -10 -5 0 -10 5 -10 10 0 6 5 10 10 10 6 0 10 -4 10 -10z m75 -29 c3 -5 2
-12 -3 -15 -5 -3 -9 1 -9 9 0 17 3 19 12 6z"/>
<path d="M2678 4258 c-51 -13 -113 -71 -191 -175 -126 -170 -150 -259 -95
-354 82 -140 329 -270 464 -245 68 13 226 193 317 362 35 66 34 98 -3 169 -59
113 -139 187 -243 227 -59 23 -190 32 -249 16z"/>
<path d="M3597 4238 c-13 -18 -69 -100 -123 -183 -55 -82 -103 -154 -107 -160
-46 -57 -274 -425 -263 -425 3 0 1 -11 -4 -24 -11 -30 9 -111 39 -160 41 -65
229 -167 370 -201 115 -27 163 -7 253 105 38 47 137 211 178 295 14 28 27 52
31 55 10 10 126 246 159 325 18 44 32 92 32 107 -2 82 -131 202 -279 261 -59
23 -86 28 -179 34 l-82 5 -25 -34z"/>
<path d="M4441 4084 c-40 -12 -61 -30 -87 -79 -6 -11 -23 -42 -39 -70 -15 -27
-66 -120 -113 -205 -46 -85 -96 -175 -110 -200 -145 -264 -254 -496 -267 -572
-10 -56 29 -112 125 -178 69 -47 229 -132 296 -159 l52 -20 31 31 c82 81 361
498 536 803 31 55 61 105 67 112 21 26 98 187 98 205 0 52 -119 229 -182 270
-86 57 -310 91 -407 62z"/>
<path d="M5201 3567 c-40 -14 -73 -59 -209 -287 -48 -80 -89 -147 -92 -150 -3
-3 -11 -16 -18 -29 -8 -13 -48 -83 -90 -155 -171 -297 -209 -374 -217 -440 -8
-61 19 -122 71 -162 48 -38 218 -108 244 -102 3 1 14 -3 25 -9 42 -23 191 -32
235 -15 34 13 58 41 123 143 84 131 220 389 300 569 112 253 126 334 73 424
-29 50 -100 121 -154 154 -93 56 -222 82 -291 59z"/>
</g>
</svg>
